<svg width="100" height="34" viewBox="0 0 100 34" fill="none" xmlns="http://www.w3.org/2000/svg">
<path d="M14.9521 7.76C14.9521 9.18667 14.6388 10.46 14.0121 11.58C13.3988 12.7 12.5321 13.58 11.4121 14.22C10.3054 14.8467 9.04544 15.16 7.63211 15.16C6.21877 15.16 4.95211 14.8467 3.83211 14.22C2.72544 13.5933 1.85877 12.72 1.23211 11.6C0.605441 10.48 0.292108 9.2 0.292108 7.76C0.292108 6.32 0.605441 5.04 1.23211 3.92C1.85877 2.8 2.72544 1.93333 3.83211 1.32C4.95211 0.693333 6.21877 0.38 7.63211 0.38C9.05878 0.38 10.3254 0.7 11.4321 1.34C12.5521 1.98 13.4188 2.86 14.0321 3.98C14.6454 5.1 14.9521 6.36 14.9521 7.76ZM12.1921 7.76C12.1921 6.22667 11.7921 5 10.9921 4.08C10.2054 3.14667 9.08544 2.68 7.63211 2.68C6.15211 2.68 5.01211 3.14667 4.21211 4.08C3.42544 5.01333 3.03211 6.24 3.03211 7.76C3.03211 9.30667 3.43211 10.5467 4.23211 11.48C5.03211 12.4 6.16544 12.86 7.63211 12.86C9.09877 12.86 10.2254 12.3933 11.0121 11.46C11.7988 10.5267 12.1921 9.29333 12.1921 7.76ZM30.1154 16.56C30.4487 16.64 30.6154 16.8467 30.6154 17.18V18.36H25.0354V17.18C25.0354 16.8467 25.2021 16.64 25.5354 16.56L25.6554 16.54L25.9554 16.48L26.5354 16.38V13.72C26.1621 14.12 25.7021 14.46 25.1554 14.74C24.6221 15.0067 24.0221 15.14 23.3554 15.14C22.8087 15.14 22.3021 15.02 21.8354 14.78C21.3554 14.5267 20.9554 14.1933 20.6354 13.78C20.2887 13.34 20.0287 12.8 19.8554 12.16C19.6687 11.4933 19.5754 10.7467 19.5754 9.92C19.5754 9.16 19.6754 8.45333 19.8754 7.8C20.0621 7.18667 20.3621 6.62 20.7754 6.1C21.1754 5.59333 21.6354 5.21333 22.1554 4.96C22.6754 4.69333 23.2821 4.56 23.9754 4.56C25.4821 4.56 27.1621 4.74667 29.0154 5.12V16.38L29.6354 16.48C29.7154 16.4933 29.7821 16.5067 29.8354 16.52C29.8887 16.5333 29.9287 16.54 29.9554 16.54L30.1154 16.56ZM25.5354 12.88C25.8954 12.6533 26.2287 12.3533 26.5354 11.98V6.64C25.8021 6.50667 25.1421 6.44 24.5554 6.44C24.1954 6.44 23.8554 6.51333 23.5354 6.66C23.2287 6.80667 22.9754 7.02 22.7754 7.3C22.5887 7.54 22.4287 7.9 22.2954 8.38C22.1754 8.82 22.1154 9.33333 22.1154 9.92C22.1154 10.48 22.1687 10.9867 22.2754 11.44C22.3821 11.8933 22.5154 12.2333 22.6754 12.46C22.8621 12.7267 23.0821 12.92 23.3354 13.04C23.5887 13.16 23.8821 13.22 24.2154 13.22C24.7221 13.22 25.1621 13.1067 25.5354 12.88ZM42.2579 13.2C42.5912 13.28 42.7579 13.4867 42.7579 13.82V15H39.7379C39.4312 15 39.2246 14.8467 39.1179 14.54L38.9379 13.72C38.7112 13.9467 38.4912 14.1467 38.2779 14.32C38.0779 14.48 37.8379 14.6267 37.5579 14.76C37.2912 14.88 37.0112 14.98 36.7179 15.06C36.3846 15.1267 36.0712 15.16 35.7779 15.16C35.2312 15.16 34.7312 15.0667 34.2779 14.88C33.8912 14.72 33.5312 14.4467 33.1979 14.06C32.9312 13.7533 32.7112 13.3467 32.5379 12.84C32.3912 12.3333 32.3179 11.8067 32.3179 11.26V6.72L31.2979 6.54C30.9646 6.46 30.7979 6.25333 30.7979 5.92V4.74H34.7779V11.26C34.7779 11.8733 34.9246 12.36 35.2179 12.72C35.4979 13.0533 35.9312 13.22 36.5179 13.22C36.9179 13.22 37.3179 13.1267 37.7179 12.94C38.0779 12.7667 38.4312 12.5067 38.7779 12.16V6.72C38.4046 6.65333 38.1579 6.61333 38.0379 6.6C37.9179 6.57333 37.8312 6.55333 37.7779 6.54C37.4446 6.46 37.2779 6.25333 37.2779 5.92V4.74H41.2579V13.02L42.2579 13.2ZM48.0755 4.58C48.7289 4.58 49.3222 4.68 49.8555 4.88C50.3622 5.06667 50.8289 5.37333 51.2555 5.8C51.6422 6.18667 51.9489 6.67333 52.1755 7.26C52.4022 7.86 52.5155 8.51333 52.5155 9.22C52.5155 9.38 52.5022 9.54 52.4755 9.7C52.4489 9.84667 52.4222 9.94 52.3955 9.98C52.3689 10.0467 52.3089 10.1 52.2155 10.14C52.1622 10.1667 52.0689 10.18 51.9355 10.18H45.5955C45.6755 11.2333 45.9622 12.0067 46.4555 12.5C46.9489 12.9933 47.6022 13.24 48.4155 13.24C48.8289 13.24 49.1689 13.1933 49.4355 13.1C49.7289 13.0067 49.9822 12.9 50.1955 12.78C50.2889 12.7267 50.3822 12.68 50.4755 12.64C50.5822 12.5867 50.6822 12.5333 50.7755 12.48C50.9222 12.3867 51.0755 12.34 51.2355 12.34C51.3422 12.34 51.4355 12.36 51.5155 12.4C51.5822 12.4267 51.6422 12.48 51.6955 12.56L52.4155 13.46C52.1089 13.8067 51.8022 14.08 51.4955 14.28C51.1355 14.5067 50.7822 14.68 50.4355 14.8C50.1022 14.9067 49.7222 14.9933 49.2955 15.06C48.9622 15.1133 48.5889 15.14 48.1755 15.14C47.4422 15.14 46.7822 15.0267 46.1955 14.8C45.6089 14.5733 45.0755 14.22 44.5955 13.74C44.1422 13.2867 43.7822 12.7133 43.5155 12.02C43.2622 11.3533 43.1355 10.56 43.1355 9.64C43.1355 8.97333 43.2489 8.32 43.4755 7.68C43.6889 7.08 44.0155 6.54 44.4555 6.06C44.8689 5.60667 45.3822 5.24667 45.9955 4.98C46.6089 4.71333 47.3022 4.58 48.0755 4.58ZM48.1155 6.34C47.4089 6.34 46.8489 6.54667 46.4355 6.96C46.0355 7.36 45.7755 7.93333 45.6555 8.68H50.2955C50.2955 8.4 50.2489 8.1 50.1555 7.78C50.0755 7.52667 49.9422 7.28 49.7555 7.04C49.5822 6.82667 49.3555 6.66 49.0755 6.54C48.7689 6.40667 48.4489 6.34 48.1155 6.34ZM61.4049 15.16C60.5116 15.16 59.8249 14.9067 59.3449 14.4C58.8649 13.8933 58.6249 13.2 58.6249 12.32V6.6H57.5849C57.4783 6.6 57.3649 6.55333 57.2449 6.46C57.1383 6.38 57.0849 6.25333 57.0849 6.08V5.08L58.7449 4.82L59.2649 2.02C59.2783 1.9 59.3383 1.8 59.4449 1.72C59.5516 1.64 59.6783 1.6 59.8249 1.6H61.1049V4.84H63.8049V6.6H61.1049V12.16C61.1049 12.4667 61.1849 12.7133 61.3449 12.9C61.5049 13.0733 61.7183 13.16 61.9849 13.16C62.1716 13.16 62.2983 13.1467 62.3649 13.12L62.6249 13L62.8449 12.88C62.8849 12.8533 62.9383 12.84 63.0049 12.84C63.1116 12.84 63.1783 12.8533 63.2049 12.88L63.3449 13.04L64.0849 14.24C63.7383 14.52 63.3249 14.7467 62.8449 14.92C62.3916 15.08 61.9116 15.16 61.4049 15.16ZM69.2654 4.58C69.9187 4.58 70.5121 4.68 71.0454 4.88C71.5521 5.06667 72.0187 5.37333 72.4454 5.8C72.8321 6.18667 73.1387 6.67333 73.3654 7.26C73.5921 7.86 73.7054 8.51333 73.7054 9.22C73.7054 9.38 73.6921 9.54 73.6654 9.7C73.6387 9.84667 73.6121 9.94 73.5854 9.98C73.5587 10.0467 73.4987 10.1 73.4054 10.14C73.3521 10.1667 73.2587 10.18 73.1254 10.18H66.7854C66.8654 11.2333 67.1521 12.0067 67.6454 12.5C68.1387 12.9933 68.7921 13.24 69.6054 13.24C70.0187 13.24 70.3587 13.1933 70.6254 13.1C70.9187 13.0067 71.1721 12.9 71.3854 12.78C71.4787 12.7267 71.5721 12.68 71.6654 12.64C71.7721 12.5867 71.8721 12.5333 71.9654 12.48C72.1121 12.3867 72.2654 12.34 72.4254 12.34C72.5321 12.34 72.6254 12.36 72.7054 12.4C72.7721 12.4267 72.8321 12.48 72.8854 12.56L73.6054 13.46C73.2987 13.8067 72.9921 14.08 72.6854 14.28C72.3254 14.5067 71.9721 14.68 71.6254 14.8C71.2921 14.9067 70.9121 14.9933 70.4854 15.06C70.1521 15.1133 69.7787 15.14 69.3654 15.14C68.6321 15.14 67.9721 15.0267 67.3854 14.8C66.7987 14.5733 66.2654 14.22 65.7854 13.74C65.3321 13.2867 64.9721 12.7133 64.7054 12.02C64.4521 11.3533 64.3254 10.56 64.3254 9.64C64.3254 8.97333 64.4387 8.32 64.6654 7.68C64.8787 7.08 65.2054 6.54 65.6454 6.06C66.0587 5.60667 66.5721 5.24667 67.1854 4.98C67.7987 4.71333 68.4921 4.58 69.2654 4.58ZM69.3054 6.34C68.5987 6.34 68.0387 6.54667 67.6254 6.96C67.2254 7.36 66.9654 7.93333 66.8454 8.68H71.4854C71.4854 8.4 71.4387 8.1 71.3454 7.78C71.2654 7.52667 71.1321 7.28 70.9454 7.04C70.7721 6.82667 70.5454 6.66 70.2654 6.54C69.9587 6.40667 69.6387 6.34 69.3054 6.34ZM91.0259 13.2C91.3592 13.28 91.5259 13.4867 91.5259 13.82V15H87.5459V8.48C87.5459 7.81333 87.4059 7.32 87.1259 7C86.8459 6.66667 86.4259 6.5 85.8659 6.5C85.6392 6.5 85.3992 6.54667 85.1459 6.64C84.9325 6.72 84.7459 6.84 84.5859 7C84.4525 7.13333 84.3259 7.34 84.2059 7.62C84.1125 7.84667 84.0659 8.13333 84.0659 8.48V13.02L84.6459 13.12L84.9459 13.18L85.0659 13.2C85.3992 13.28 85.5659 13.4867 85.5659 13.82V15H81.5859V8.48C81.5859 7.8 81.4459 7.3 81.1659 6.98C80.8859 6.66 80.4792 6.5 79.9459 6.5C79.5859 6.5 79.2525 6.58667 78.9459 6.76C78.6659 6.92 78.3792 7.16667 78.0859 7.5V13.02L78.6659 13.12L78.9659 13.18L79.0859 13.2C79.4192 13.28 79.5859 13.4867 79.5859 13.82V15H74.1059V13.82C74.1059 13.4867 74.2725 13.28 74.6059 13.2L74.7259 13.18C74.7659 13.18 74.8059 13.1733 74.8459 13.16C74.8992 13.1467 74.9592 13.1333 75.0259 13.12L75.6059 13.02V6.72L75.0259 6.62C74.9592 6.60667 74.8992 6.59333 74.8459 6.58C74.8059 6.56667 74.7659 6.56 74.7259 6.56L74.6059 6.54C74.2592 6.46 74.0859 6.25333 74.0859 5.92V4.74H77.1259C77.4325 4.74 77.6392 4.89333 77.7459 5.2L77.9059 5.96C78.1459 5.69333 78.3325 5.50667 78.4659 5.4C78.6525 5.25333 78.8659 5.11333 79.1059 4.98C79.3192 4.86 79.5592 4.76 79.8259 4.68C80.0392 4.61333 80.3192 4.58 80.6659 4.58C81.3325 4.58 81.8659 4.75333 82.2659 5.1C82.6925 5.47333 83.0059 5.94 83.2059 6.5C83.3659 6.15333 83.5659 5.86 83.8059 5.62C84.0192 5.40667 84.2792 5.21333 84.5859 5.04C84.8125 4.90667 85.1192 4.79333 85.5059 4.7C85.8259 4.62 86.1525 4.58 86.4859 4.58C87.0592 4.58 87.5592 4.66667 87.9859 4.84C88.4525 5.02667 88.8259 5.28 89.1059 5.6C89.3992 5.93333 89.6259 6.34 89.7859 6.82C89.9459 7.3 90.0259 7.85333 90.0259 8.48V13.02L90.6059 13.12C90.6725 13.1333 90.7259 13.1467 90.7659 13.16C90.8192 13.1733 90.8659 13.18 90.9059 13.18L91.0259 13.2ZM91.929 1.84C92.1423 1.65333 92.389 1.46667 92.669 1.28C92.9757 1.08 93.269 0.919999 93.549 0.799999C93.7757 0.706666 94.1157 0.606666 94.569 0.5C94.929 0.42 95.329 0.38 95.769 0.38C96.3423 0.38 96.869 0.46 97.349 0.619999C97.829 0.779999 98.2357 1.00667 98.569 1.3C98.929 1.62 99.1957 1.98 99.369 2.38C99.5557 2.82 99.649 3.29333 99.649 3.8C99.649 4.25333 99.569 4.68667 99.409 5.1C99.2757 5.47333 99.0957 5.8 98.869 6.08C98.6957 6.30667 98.449 6.54 98.129 6.78L97.389 7.34C97.1757 7.5 96.9757 7.67333 96.789 7.86C96.629 8.04667 96.529 8.24 96.489 8.44L96.249 9.9H94.569L94.389 8.28V8.1C94.389 7.82 94.4623 7.56667 94.609 7.34C94.769 7.08667 94.949 6.88 95.149 6.72C95.2823 6.6 95.5223 6.42 95.869 6.18C95.9757 6.1 96.209 5.9 96.569 5.58C96.8357 5.31333 97.0223 5.08 97.129 4.88C97.2757 4.61333 97.349 4.29333 97.349 3.92C97.349 3.72 97.3023 3.50667 97.209 3.28C97.1423 3.10667 97.0223 2.94667 96.849 2.8C96.7023 2.68 96.509 2.57333 96.269 2.48C96.0557 2.4 95.809 2.36 95.529 2.36C95.1957 2.36 94.8757 2.40667 94.569 2.5C94.3423 2.56667 94.1223 2.66 93.909 2.78L93.449 3.06C93.329 3.14 93.209 3.18 93.089 3.18C92.849 3.18 92.6757 3.08 92.569 2.88L91.929 1.84ZM93.809 13.64C93.809 13.4267 93.849 13.2333 93.929 13.06C94.009 12.8733 94.1157 12.7133 94.249 12.58C94.3957 12.4333 94.5557 12.32 94.729 12.24C94.9157 12.16 95.1157 12.12 95.329 12.12C95.5557 12.12 95.7557 12.16 95.929 12.24C96.1157 12.32 96.2757 12.4267 96.409 12.56C96.5423 12.6933 96.649 12.8533 96.729 13.04C96.809 13.2133 96.849 13.4133 96.849 13.64C96.849 13.8533 96.809 14.0533 96.729 14.24C96.649 14.4267 96.5423 14.5867 96.409 14.72C96.3023 14.8267 96.1423 14.9267 95.929 15.02C95.7557 15.1 95.5557 15.14 95.329 15.14C95.1157 15.14 94.9157 15.1 94.729 15.02C94.5157 14.9267 94.3557 14.8267 94.249 14.72C94.1157 14.5867 94.009 14.4267 93.929 14.24C93.849 14.0533 93.809 13.8533 93.809 13.64ZM22.1157 24.21C22.2857 24.64 22.3707 25.105 22.3707 25.605C22.3707 26.135 22.2807 26.62 22.1007 27.06C21.9207 27.5 21.6607 27.875 21.3207 28.185C20.9907 28.485 20.5507 28.73 20.0007 28.92C19.5007 29.09 18.8857 29.175 18.1557 29.175H16.8207V31.515L17.2707 31.59C17.3207 31.6 17.3607 31.61 17.3907 31.62C17.4307 31.63 17.4657 31.635 17.4957 31.635L17.5857 31.65C17.8357 31.71 17.9607 31.865 17.9607 32.115V33H13.6707V32.115C13.6707 31.865 13.7957 31.71 14.0457 31.65L14.1357 31.635L14.3607 31.59L14.8107 31.515V23.64L14.3607 23.565C14.3107 23.555 14.2657 23.545 14.2257 23.535C14.1957 23.525 14.1657 23.52 14.1357 23.52L14.0457 23.505C13.7957 23.445 13.6707 23.29 13.6707 23.04V22.155H18.1557C18.8757 22.155 19.5057 22.24 20.0457 22.41C20.5457 22.57 20.9807 22.81 21.3507 23.13C21.6907 23.43 21.9457 23.79 22.1157 24.21ZM20.2107 26.445C20.3007 26.205 20.3457 25.925 20.3457 25.605C20.3457 25.325 20.3007 25.065 20.2107 24.825C20.1207 24.595 19.9857 24.395 19.8057 24.225C19.6357 24.065 19.4107 23.94 19.1307 23.85C18.8607 23.76 18.5357 23.715 18.1557 23.715H16.8207V27.6H18.1557C18.5357 27.6 18.8607 27.555 19.1307 27.465C19.4107 27.365 19.6357 27.235 19.8057 27.075C19.9857 26.915 20.1207 26.705 20.2107 26.445ZM33.8642 23.04C33.8642 23.29 33.7392 23.445 33.4892 23.505L33.3992 23.52C33.3692 23.52 33.3342 23.525 33.2942 23.535C33.2642 23.545 33.2242 23.555 33.1742 23.565L32.7242 23.64V28.65C32.7242 29.3 32.6192 29.895 32.4092 30.435C32.1892 31.005 31.8942 31.48 31.5242 31.86C31.1342 32.25 30.6592 32.56 30.0992 32.79C29.5592 33.01 28.9342 33.12 28.2242 33.12C27.5142 33.12 26.8892 33.01 26.3492 32.79C25.8092 32.57 25.3392 32.26 24.9392 31.86C24.5492 31.46 24.2492 30.985 24.0392 30.435C23.8392 29.925 23.7392 29.33 23.7392 28.65V23.64L23.2892 23.565C23.2392 23.555 23.1942 23.545 23.1542 23.535C23.1242 23.525 23.0942 23.52 23.0642 23.52L22.9742 23.505C22.7242 23.445 22.5992 23.29 22.5992 23.04V22.155H26.9492V23.04C26.9492 23.29 26.8242 23.445 26.5742 23.505L26.4692 23.52C26.4392 23.52 26.4042 23.525 26.3642 23.535C26.3242 23.545 26.2742 23.555 26.2142 23.565L25.7492 23.64V28.635C25.7492 29.085 25.8042 29.46 25.9142 29.76C26.0142 30.08 26.1792 30.37 26.4092 30.63C26.5992 30.85 26.8542 31.03 27.1742 31.17C27.4642 31.3 27.8142 31.365 28.2242 31.365C28.6342 31.365 28.9842 31.3 29.2742 31.17C29.6142 31.02 29.8742 30.84 30.0542 30.63C30.2442 30.41 30.4042 30.125 30.5342 29.775C30.6542 29.395 30.7142 29.02 30.7142 28.65V23.64L30.2492 23.565C30.1892 23.555 30.1392 23.545 30.0992 23.535C30.0592 23.525 30.0242 23.52 29.9942 23.52L29.8892 23.505C29.6392 23.445 29.5142 23.29 29.5142 23.04V22.155H33.8642V23.04ZM42.178 25.575C41.998 25.575 41.883 25.485 41.833 25.305C41.803 25.175 41.758 24.775 41.698 24.105C40.908 23.875 40.218 23.76 39.628 23.76C39.098 23.76 38.628 23.845 38.218 24.015C37.788 24.195 37.423 24.45 37.123 24.78C36.813 25.12 36.573 25.52 36.403 25.98C36.223 26.46 36.133 26.995 36.133 27.585C36.133 28.185 36.223 28.725 36.403 29.205C36.593 29.705 36.823 30.105 37.093 30.405C37.383 30.725 37.733 30.975 38.143 31.155C38.523 31.325 38.953 31.41 39.433 31.41C39.713 31.41 39.963 31.395 40.183 31.365C40.413 31.335 40.618 31.29 40.798 31.23C40.968 31.17 41.143 31.085 41.323 30.975C41.473 30.885 41.638 30.755 41.818 30.585C41.848 30.555 41.903 30.52 41.983 30.48C42.023 30.46 42.083 30.45 42.163 30.45C42.283 30.45 42.378 30.49 42.448 30.57L43.243 31.44C42.803 31.99 42.263 32.405 41.623 32.685C40.963 32.975 40.188 33.12 39.298 33.12C38.528 33.12 37.808 32.98 37.138 32.7C36.478 32.42 35.928 32.04 35.488 31.56C35.018 31.05 34.668 30.465 34.438 29.805C34.198 29.125 34.078 28.385 34.078 27.585C34.078 26.755 34.213 26.005 34.483 25.335C34.753 24.665 35.133 24.085 35.623 23.595C36.133 23.085 36.718 22.7 37.378 22.44C38.058 22.17 38.813 22.035 39.643 22.035C40.563 22.035 41.698 22.295 43.048 22.815V25.575H42.178ZM54.7504 25.575C54.5704 25.575 54.4554 25.485 54.4054 25.305C54.3754 25.175 54.3304 24.775 54.2704 24.105C53.4804 23.875 52.7904 23.76 52.2004 23.76C51.6704 23.76 51.2004 23.845 50.7904 24.015C50.3604 24.195 49.9954 24.45 49.6954 24.78C49.3854 25.12 49.1454 25.52 48.9754 25.98C48.7954 26.46 48.7054 26.995 48.7054 27.585C48.7054 28.185 48.7954 28.725 48.9754 29.205C49.1654 29.705 49.3954 30.105 49.6654 30.405C49.9554 30.725 50.3054 30.975 50.7154 31.155C51.0954 31.325 51.5254 31.41 52.0054 31.41C52.2854 31.41 52.5354 31.395 52.7554 31.365C52.9854 31.335 53.1904 31.29 53.3704 31.23C53.5404 31.17 53.7154 31.085 53.8954 30.975C54.0454 30.885 54.2104 30.755 54.3904 30.585C54.4204 30.555 54.4754 30.52 54.5554 30.48C54.5954 30.46 54.6554 30.45 54.7354 30.45C54.8554 30.45 54.9504 30.49 55.0204 30.57L55.8154 31.44C55.3754 31.99 54.8354 32.405 54.1954 32.685C53.5354 32.975 52.7604 33.12 51.8704 33.12C51.1004 33.12 50.3804 32.98 49.7104 32.7C49.0504 32.42 48.5004 32.04 48.0604 31.56C47.5904 31.05 47.2404 30.465 47.0104 29.805C46.7704 29.125 46.6504 28.385 46.6504 27.585C46.6504 26.755 46.7854 26.005 47.0554 25.335C47.3254 24.665 47.7054 24.085 48.1954 23.595C48.7054 23.085 49.2904 22.7 49.9504 22.44C50.6304 22.17 51.3854 22.035 52.2154 22.035C53.1354 22.035 54.2704 22.295 55.6204 22.815V25.575H54.7504ZM59.8162 25.185C60.3662 25.185 60.8862 25.28 61.3762 25.47C61.8562 25.66 62.2562 25.92 62.5762 26.25C62.8962 26.58 63.1462 26.995 63.3262 27.495C63.5062 27.985 63.5962 28.53 63.5962 29.13C63.5962 29.73 63.5062 30.28 63.3262 30.78C63.1362 31.29 62.8862 31.71 62.5762 32.04C62.2462 32.39 61.8462 32.655 61.3762 32.835C60.9162 33.015 60.3962 33.105 59.8162 33.105C59.2362 33.105 58.7112 33.015 58.2412 32.835C57.7712 32.655 57.3712 32.39 57.0412 32.04C56.6912 31.68 56.4312 31.26 56.2612 30.78C56.0812 30.28 55.9912 29.73 55.9912 29.13C55.9912 28.53 56.0812 27.985 56.2612 27.495C56.4312 27.035 56.6912 26.62 57.0412 26.25C57.3612 25.92 57.7612 25.66 58.2412 25.47C58.7312 25.28 59.2562 25.185 59.8162 25.185ZM59.8162 31.68C60.4562 31.68 60.9262 31.465 61.2262 31.035C61.5362 30.585 61.6912 29.955 61.6912 29.145C61.6912 28.335 61.5362 27.705 61.2262 27.255C60.9262 26.815 60.4562 26.595 59.8162 26.595C59.1762 26.595 58.6962 26.815 58.3762 27.255C58.0562 27.695 57.8962 28.33 57.8962 29.16C57.8962 29.97 58.0562 30.595 58.3762 31.035C58.6862 31.465 59.1662 31.68 59.8162 31.68ZM68.9975 25.17C69.3875 25.17 69.7025 25.255 69.9425 25.425L69.7025 26.82C69.6925 26.91 69.6625 26.97 69.6125 27C69.5525 27.04 69.4825 27.06 69.4025 27.06C69.3325 27.06 69.2325 27.045 69.1025 27.015C68.9225 26.975 68.7475 26.955 68.5775 26.955C68.1875 26.955 67.8575 27.06 67.5875 27.27C67.3375 27.46 67.1075 27.775 66.8975 28.215V31.515L67.6475 31.65C67.8975 31.71 68.0225 31.865 68.0225 32.115V33H63.9125V32.115C63.9125 31.865 64.0375 31.71 64.2875 31.65L65.0375 31.515V26.79L64.2875 26.655C64.0375 26.595 63.9125 26.44 63.9125 26.19V25.305H66.1325C66.3225 25.305 66.4525 25.34 66.5225 25.41C66.5925 25.48 66.6425 25.6 66.6725 25.77L66.7925 26.7C67.0625 26.21 67.3825 25.835 67.7525 25.575C68.1325 25.305 68.5475 25.17 68.9975 25.17ZM73.8507 25.185C74.3407 25.185 74.7857 25.26 75.1857 25.41C75.5657 25.55 75.9157 25.78 76.2357 26.1C76.5257 26.39 76.7557 26.755 76.9257 27.195C77.0957 27.645 77.1807 28.135 77.1807 28.665C77.1807 28.785 77.1707 28.905 77.1507 29.025C77.1307 29.135 77.1107 29.205 77.0907 29.235C77.0707 29.285 77.0257 29.325 76.9557 29.355C76.9157 29.375 76.8457 29.385 76.7457 29.385H71.9907C72.0507 30.175 72.2657 30.755 72.6357 31.125C73.0057 31.495 73.4957 31.68 74.1057 31.68C74.4157 31.68 74.6707 31.645 74.8707 31.575C75.0907 31.505 75.2807 31.425 75.4407 31.335C75.5107 31.295 75.5807 31.26 75.6507 31.23C75.7307 31.19 75.8057 31.15 75.8757 31.11C75.9857 31.04 76.1007 31.005 76.2207 31.005C76.3007 31.005 76.3707 31.02 76.4307 31.05C76.4807 31.07 76.5257 31.11 76.5657 31.17L77.1057 31.845C76.8757 32.105 76.6457 32.31 76.4157 32.46C76.1457 32.63 75.8807 32.76 75.6207 32.85C75.3707 32.93 75.0857 32.995 74.7657 33.045C74.5157 33.085 74.2357 33.105 73.9257 33.105C73.3757 33.105 72.8807 33.02 72.4407 32.85C72.0007 32.68 71.6007 32.415 71.2407 32.055C70.9007 31.715 70.6307 31.285 70.4307 30.765C70.2407 30.265 70.1457 29.67 70.1457 28.98C70.1457 28.48 70.2307 27.99 70.4007 27.51C70.5607 27.06 70.8057 26.655 71.1357 26.295C71.4457 25.955 71.8307 25.685 72.2907 25.485C72.7507 25.285 73.2707 25.185 73.8507 25.185ZM73.8807 26.505C73.3507 26.505 72.9307 26.66 72.6207 26.97C72.3207 27.27 72.1257 27.7 72.0357 28.26H75.5157C75.5157 28.05 75.4807 27.825 75.4107 27.585C75.3507 27.395 75.2507 27.21 75.1107 27.03C74.9807 26.87 74.8107 26.745 74.6007 26.655C74.3707 26.555 74.1307 26.505 73.8807 26.505ZM85.9711 31.65C86.2211 31.71 86.3461 31.865 86.3461 32.115V33H84.0811C83.8511 33 83.6961 32.885 83.6161 32.655L83.4811 32.04C83.3111 32.21 83.1461 32.36 82.9861 32.49C82.8361 32.61 82.6561 32.72 82.4461 32.82C82.2461 32.91 82.0361 32.985 81.8161 33.045C81.5661 33.095 81.3311 33.12 81.1111 33.12C80.7011 33.12 80.3261 33.05 79.9861 32.91C79.6961 32.79 79.4261 32.585 79.1761 32.295C78.9761 32.065 78.8111 31.76 78.6811 31.38C78.5711 31 78.5161 30.605 78.5161 30.195V26.79L77.7511 26.655C77.5011 26.595 77.3761 26.44 77.3761 26.19V25.305H80.3611V30.195C80.3611 30.655 80.4711 31.02 80.6911 31.29C80.9011 31.54 81.2261 31.665 81.6661 31.665C81.9661 31.665 82.2661 31.595 82.5661 31.455C82.8361 31.325 83.1011 31.13 83.3611 30.87V26.79C83.0811 26.74 82.8961 26.71 82.8061 26.7C82.7161 26.68 82.6511 26.665 82.6111 26.655C82.3611 26.595 82.2361 26.44 82.2361 26.19V25.305H85.2211V31.515L85.9711 31.65Z" fill="black"/>
</svg>
