<svg width="260" height="88" viewBox="0 0 260 88" fill="none" xmlns="http://www.w3.org/2000/svg">
<path d="M38.8755 20.176C38.8755 23.8853 38.0608 27.196 36.4315 30.108C34.8368 33.02 32.5835 35.308 29.6715 36.972C26.7941 38.6013 23.5181 39.416 19.8435 39.416C16.1688 39.416 12.8755 38.6013 9.96348 36.972C7.08615 35.3427 4.83281 33.072 3.20348 30.16C1.57415 27.248 0.759479 23.92 0.759479 20.176C0.759479 16.432 1.57415 13.104 3.20348 10.192C4.83281 7.28 7.08615 5.02667 9.96348 3.432C12.8755 1.80267 16.1688 0.988 19.8435 0.988C23.5528 0.988 26.8461 1.82 29.7235 3.484C32.6355 5.148 34.8888 7.436 36.4835 10.348C38.0781 13.26 38.8755 16.536 38.8755 20.176ZM31.6995 20.176C31.6995 16.1893 30.6595 13 28.5795 10.608C26.5341 8.18133 23.6221 6.968 19.8435 6.968C15.9955 6.968 13.0315 8.18133 10.9515 10.608C8.90615 13.0347 7.88348 16.224 7.88348 20.176C7.88348 24.1973 8.92348 27.4213 11.0035 29.848C13.0835 32.24 16.0301 33.436 19.8435 33.436C23.6568 33.436 26.5861 32.2227 28.6315 29.796C30.6768 27.3693 31.6995 24.1627 31.6995 20.176ZM78.3 43.056C79.1667 43.264 79.6 43.8013 79.6 44.668V47.736H65.092V44.668C65.092 43.8013 65.5253 43.264 66.392 43.056L66.704 43.004L67.484 42.848L68.992 42.588V35.672C68.0213 36.712 66.8253 37.596 65.404 38.324C64.0173 39.0173 62.4573 39.364 60.724 39.364C59.3027 39.364 57.9853 39.052 56.772 38.428C55.524 37.7693 54.484 36.9027 53.652 35.828C52.7507 34.684 52.0747 33.28 51.624 31.616C51.1387 29.8827 50.896 27.9413 50.896 25.792C50.896 23.816 51.156 21.9787 51.676 20.28C52.1613 18.6853 52.9413 17.212 54.016 15.86C55.056 14.5427 56.252 13.5547 57.604 12.896C58.956 12.2027 60.5333 11.856 62.336 11.856C66.2533 11.856 70.6213 12.3413 75.44 13.312V42.588L77.052 42.848C77.26 42.8827 77.4333 42.9173 77.572 42.952C77.7107 42.9867 77.8147 43.004 77.884 43.004L78.3 43.056ZM66.392 33.488C67.328 32.8987 68.1947 32.1187 68.992 31.148V17.264C67.0853 16.9173 65.3693 16.744 63.844 16.744C62.908 16.744 62.024 16.9347 61.192 17.316C60.3947 17.6973 59.736 18.252 59.216 18.98C58.7307 19.604 58.3147 20.54 57.968 21.788C57.656 22.932 57.5 24.2667 57.5 25.792C57.5 27.248 57.6387 28.5653 57.916 29.744C58.1933 30.9227 58.54 31.8067 58.956 32.396C59.4413 33.0893 60.0133 33.592 60.672 33.904C61.3307 34.216 62.0933 34.372 62.96 34.372C64.2773 34.372 65.4213 34.0773 66.392 33.488ZM109.871 34.32C110.737 34.528 111.171 35.0653 111.171 35.932V39H103.319C102.521 39 101.984 38.6013 101.707 37.804L101.239 35.672C100.649 36.2613 100.077 36.7813 99.5225 37.232C99.0025 37.648 98.3785 38.0293 97.6505 38.376C96.9572 38.688 96.2292 38.948 95.4665 39.156C94.5998 39.3293 93.7852 39.416 93.0225 39.416C91.6012 39.416 90.3012 39.1733 89.1225 38.688C88.1172 38.272 87.1812 37.5613 86.3145 36.556C85.6212 35.7587 85.0492 34.7013 84.5985 33.384C84.2172 32.0667 84.0265 30.6973 84.0265 29.276V17.472L81.3745 17.004C80.5078 16.796 80.0745 16.2587 80.0745 15.392V12.324H90.4225V29.276C90.4225 30.8707 90.8038 32.136 91.5665 33.072C92.2945 33.9387 93.4212 34.372 94.9465 34.372C95.9865 34.372 97.0265 34.1293 98.0665 33.644C99.0025 33.1933 99.9212 32.5173 100.823 31.616V17.472C99.8518 17.2987 99.2105 17.1947 98.8985 17.16C98.5865 17.0907 98.3612 17.0387 98.2225 17.004C97.3558 16.796 96.9225 16.2587 96.9225 15.392V12.324H107.271V33.852L109.871 34.32ZM124.996 11.908C126.695 11.908 128.238 12.168 129.624 12.688C130.942 13.1733 132.155 13.9707 133.264 15.08C134.27 16.0853 135.067 17.3507 135.656 18.876C136.246 20.436 136.54 22.1347 136.54 23.972C136.54 24.388 136.506 24.804 136.436 25.22C136.367 25.6013 136.298 25.844 136.228 25.948C136.159 26.1213 136.003 26.26 135.76 26.364C135.622 26.4333 135.379 26.468 135.032 26.468H118.548C118.756 29.2067 119.502 31.2173 120.784 32.5C122.067 33.7827 123.766 34.424 125.88 34.424C126.955 34.424 127.839 34.3027 128.532 34.06C129.295 33.8173 129.954 33.54 130.508 33.228C130.751 33.0893 130.994 32.968 131.236 32.864C131.514 32.7253 131.774 32.5867 132.016 32.448C132.398 32.2053 132.796 32.084 133.212 32.084C133.49 32.084 133.732 32.136 133.94 32.24C134.114 32.3093 134.27 32.448 134.408 32.656L136.28 34.996C135.483 35.8973 134.686 36.608 133.888 37.128C132.952 37.7173 132.034 38.168 131.132 38.48C130.266 38.7573 129.278 38.9827 128.168 39.156C127.302 39.2947 126.331 39.364 125.256 39.364C123.35 39.364 121.634 39.0693 120.108 38.48C118.583 37.8907 117.196 36.972 115.948 35.724C114.77 34.5453 113.834 33.0547 113.14 31.252C112.482 29.5187 112.152 27.456 112.152 25.064C112.152 23.3307 112.447 21.632 113.036 19.968C113.591 18.408 114.44 17.004 115.584 15.756C116.659 14.5773 117.994 13.6413 119.588 12.948C121.183 12.2547 122.986 11.908 124.996 11.908ZM125.1 16.484C123.263 16.484 121.807 17.0213 120.732 18.096C119.692 19.136 119.016 20.6267 118.704 22.568H130.768C130.768 21.84 130.647 21.06 130.404 20.228C130.196 19.5693 129.85 18.928 129.364 18.304C128.914 17.7493 128.324 17.316 127.596 17.004C126.799 16.6573 125.967 16.484 125.1 16.484ZM159.653 39.416C157.33 39.416 155.545 38.7573 154.297 37.44C153.049 36.1227 152.425 34.32 152.425 32.032V17.16H149.721C149.443 17.16 149.149 17.0387 148.837 16.796C148.559 16.588 148.421 16.2587 148.421 15.808V13.208L152.737 12.532L154.089 5.252C154.123 4.94 154.279 4.68 154.557 4.472C154.834 4.264 155.163 4.16 155.545 4.16H158.873V12.584H165.893V17.16H158.873V31.616C158.873 32.4133 159.081 33.0547 159.497 33.54C159.913 33.9907 160.467 34.216 161.161 34.216C161.646 34.216 161.975 34.1813 162.149 34.112L162.825 33.8L163.397 33.488C163.501 33.4187 163.639 33.384 163.813 33.384C164.09 33.384 164.263 33.4187 164.333 33.488L164.697 33.904L166.621 37.024C165.719 37.752 164.645 38.3413 163.397 38.792C162.218 39.208 160.97 39.416 159.653 39.416ZM180.09 11.908C181.789 11.908 183.331 12.168 184.718 12.688C186.035 13.1733 187.249 13.9707 188.358 15.08C189.363 16.0853 190.161 17.3507 190.75 18.876C191.339 20.436 191.634 22.1347 191.634 23.972C191.634 24.388 191.599 24.804 191.53 25.22C191.461 25.6013 191.391 25.844 191.322 25.948C191.253 26.1213 191.097 26.26 190.854 26.364C190.715 26.4333 190.473 26.468 190.126 26.468H173.642C173.85 29.2067 174.595 31.2173 175.878 32.5C177.161 33.7827 178.859 34.424 180.974 34.424C182.049 34.424 182.933 34.3027 183.626 34.06C184.389 33.8173 185.047 33.54 185.602 33.228C185.845 33.0893 186.087 32.968 186.33 32.864C186.607 32.7253 186.867 32.5867 187.11 32.448C187.491 32.2053 187.89 32.084 188.306 32.084C188.583 32.084 188.826 32.136 189.034 32.24C189.207 32.3093 189.363 32.448 189.502 32.656L191.374 34.996C190.577 35.8973 189.779 36.608 188.982 37.128C188.046 37.7173 187.127 38.168 186.226 38.48C185.359 38.7573 184.371 38.9827 183.262 39.156C182.395 39.2947 181.425 39.364 180.35 39.364C178.443 39.364 176.727 39.0693 175.202 38.48C173.677 37.8907 172.29 36.972 171.042 35.724C169.863 34.5453 168.927 33.0547 168.234 31.252C167.575 29.5187 167.246 27.456 167.246 25.064C167.246 23.3307 167.541 21.632 168.13 19.968C168.685 18.408 169.534 17.004 170.678 15.756C171.753 14.5773 173.087 13.6413 174.682 12.948C176.277 12.2547 178.079 11.908 180.09 11.908ZM180.194 16.484C178.357 16.484 176.901 17.0213 175.826 18.096C174.786 19.136 174.11 20.6267 173.798 22.568H185.862C185.862 21.84 185.741 21.06 185.498 20.228C185.29 19.5693 184.943 18.928 184.458 18.304C184.007 17.7493 183.418 17.316 182.69 17.004C181.893 16.6573 181.061 16.484 180.194 16.484ZM236.667 34.32C237.534 34.528 237.967 35.0653 237.967 35.932V39H227.619V22.048C227.619 20.3147 227.255 19.032 226.527 18.2C225.799 17.3333 224.707 16.9 223.251 16.9C222.662 16.9 222.038 17.0213 221.379 17.264C220.825 17.472 220.339 17.784 219.923 18.2C219.577 18.5467 219.247 19.084 218.935 19.812C218.693 20.4013 218.571 21.1467 218.571 22.048V33.852L220.079 34.112L220.859 34.268L221.171 34.32C222.038 34.528 222.471 35.0653 222.471 35.932V39H212.123V22.048C212.123 20.28 211.759 18.98 211.031 18.148C210.303 17.316 209.246 16.9 207.859 16.9C206.923 16.9 206.057 17.1253 205.259 17.576C204.531 17.992 203.786 18.6333 203.023 19.5V33.852L204.531 34.112L205.311 34.268L205.623 34.32C206.49 34.528 206.923 35.0653 206.923 35.932V39H192.675V35.932C192.675 35.0653 193.109 34.528 193.975 34.32L194.287 34.268C194.391 34.268 194.495 34.2507 194.599 34.216C194.738 34.1813 194.894 34.1467 195.067 34.112L196.575 33.852V17.472L195.067 17.212C194.894 17.1773 194.738 17.1427 194.599 17.108C194.495 17.0733 194.391 17.056 194.287 17.056L193.975 17.004C193.074 16.796 192.623 16.2587 192.623 15.392V12.324H200.527C201.325 12.324 201.862 12.7227 202.139 13.52L202.555 15.496C203.179 14.8027 203.665 14.3173 204.011 14.04C204.497 13.6587 205.051 13.2947 205.675 12.948C206.23 12.636 206.854 12.376 207.547 12.168C208.102 11.9947 208.83 11.908 209.731 11.908C211.465 11.908 212.851 12.3587 213.891 13.26C215.001 14.2307 215.815 15.444 216.335 16.9C216.751 15.9987 217.271 15.236 217.895 14.612C218.45 14.0573 219.126 13.5547 219.923 13.104C220.513 12.7573 221.31 12.4627 222.315 12.22C223.147 12.012 223.997 11.908 224.863 11.908C226.354 11.908 227.654 12.1333 228.763 12.584C229.977 13.0693 230.947 13.728 231.675 14.56C232.438 15.4267 233.027 16.484 233.443 17.732C233.859 18.98 234.067 20.4187 234.067 22.048V33.852L235.575 34.112C235.749 34.1467 235.887 34.1813 235.991 34.216C236.13 34.2507 236.251 34.268 236.355 34.268L236.667 34.32ZM239.015 4.784C239.57 4.29866 240.211 3.81333 240.939 3.328C241.737 2.808 242.499 2.392 243.227 2.08C243.817 1.83733 244.701 1.57733 245.879 1.3C246.815 1.092 247.855 0.988 248.999 0.988C250.49 0.988 251.859 1.196 253.107 1.612C254.355 2.028 255.413 2.61733 256.279 3.38C257.215 4.212 257.909 5.148 258.359 6.188C258.845 7.332 259.087 8.56266 259.087 9.88C259.087 11.0587 258.879 12.1853 258.463 13.26C258.117 14.2307 257.649 15.08 257.059 15.808C256.609 16.3973 255.967 17.004 255.135 17.628L253.211 19.084C252.657 19.5 252.137 19.9507 251.651 20.436C251.235 20.9213 250.975 21.424 250.871 21.944L250.247 25.74H245.879L245.411 21.528V21.06C245.411 20.332 245.602 19.6733 245.983 19.084C246.399 18.4253 246.867 17.888 247.387 17.472C247.734 17.16 248.358 16.692 249.259 16.068C249.537 15.86 250.143 15.34 251.079 14.508C251.773 13.8147 252.258 13.208 252.535 12.688C252.917 11.9947 253.107 11.1627 253.107 10.192C253.107 9.672 252.986 9.11733 252.743 8.528C252.57 8.07733 252.258 7.66133 251.807 7.28C251.426 6.968 250.923 6.69067 250.299 6.448C249.745 6.24 249.103 6.136 248.375 6.136C247.509 6.136 246.677 6.25733 245.879 6.5C245.29 6.67333 244.718 6.916 244.163 7.228L242.967 7.956C242.655 8.164 242.343 8.268 242.031 8.268C241.407 8.268 240.957 8.008 240.679 7.488L239.015 4.784ZM243.903 35.464C243.903 34.9093 244.007 34.4067 244.215 33.956C244.423 33.4707 244.701 33.0547 245.047 32.708C245.429 32.3267 245.845 32.032 246.295 31.824C246.781 31.616 247.301 31.512 247.855 31.512C248.445 31.512 248.965 31.616 249.415 31.824C249.901 32.032 250.317 32.3093 250.663 32.656C251.01 33.0027 251.287 33.4187 251.495 33.904C251.703 34.3547 251.807 34.8747 251.807 35.464C251.807 36.0187 251.703 36.5387 251.495 37.024C251.287 37.5093 251.01 37.9253 250.663 38.272C250.386 38.5493 249.97 38.8093 249.415 39.052C248.965 39.26 248.445 39.364 247.855 39.364C247.301 39.364 246.781 39.26 246.295 39.052C245.741 38.8093 245.325 38.5493 245.047 38.272C244.701 37.9253 244.423 37.5093 244.215 37.024C244.007 36.5387 243.903 36.0187 243.903 35.464ZM55.6419 63.56C56.0952 64.7067 56.3219 65.9467 56.3219 67.28C56.3219 68.6933 56.0819 69.9867 55.6019 71.16C55.1219 72.3333 54.4285 73.3333 53.5219 74.16C52.6419 74.96 51.4685 75.6133 50.0019 76.12C48.6685 76.5733 47.0285 76.8 45.0819 76.8H41.5219V83.04L42.7219 83.24C42.8552 83.2667 42.9619 83.2933 43.0419 83.32C43.1485 83.3467 43.2419 83.36 43.3219 83.36L43.5619 83.4C44.2285 83.56 44.5619 83.9733 44.5619 84.64V87H33.1219V84.64C33.1219 83.9733 33.4552 83.56 34.1219 83.4L34.3619 83.36L34.9619 83.24L36.1619 83.04V62.04L34.9619 61.84C34.8285 61.8133 34.7085 61.7867 34.6019 61.76C34.5219 61.7333 34.4419 61.72 34.3619 61.72L34.1219 61.68C33.4552 61.52 33.1219 61.1067 33.1219 60.44V58.08H45.0819C47.0019 58.08 48.6819 58.3067 50.1219 58.76C51.4552 59.1867 52.6152 59.8267 53.6019 60.68C54.5085 61.48 55.1885 62.44 55.6419 63.56ZM50.5619 69.52C50.8019 68.88 50.9219 68.1333 50.9219 67.28C50.9219 66.5333 50.8019 65.84 50.5619 65.2C50.3219 64.5867 49.9619 64.0533 49.4819 63.6C49.0285 63.1733 48.4285 62.84 47.6819 62.6C46.9619 62.36 46.0952 62.24 45.0819 62.24H41.5219V72.6H45.0819C46.0952 72.6 46.9619 72.48 47.6819 72.24C48.4285 71.9733 49.0285 71.6267 49.4819 71.2C49.9619 70.7733 50.3219 70.2133 50.5619 69.52ZM86.9713 60.44C86.9713 61.1067 86.6379 61.52 85.9713 61.68L85.7313 61.72C85.6513 61.72 85.5579 61.7333 85.4513 61.76C85.3713 61.7867 85.2646 61.8133 85.1313 61.84L83.9313 62.04V75.4C83.9313 77.1333 83.6513 78.72 83.0913 80.16C82.5046 81.68 81.7179 82.9467 80.7313 83.96C79.6913 85 78.4246 85.8267 76.9313 86.44C75.4913 87.0267 73.8246 87.32 71.9313 87.32C70.0379 87.32 68.3713 87.0267 66.9313 86.44C65.4913 85.8533 64.2379 85.0267 63.1713 83.96C62.1313 82.8933 61.3313 81.6267 60.7713 80.16C60.2379 78.8 59.9713 77.2133 59.9713 75.4V62.04L58.7713 61.84C58.6379 61.8133 58.5179 61.7867 58.4113 61.76C58.3313 61.7333 58.2513 61.72 58.1713 61.72L57.9313 61.68C57.2646 61.52 56.9313 61.1067 56.9313 60.44V58.08H68.5313V60.44C68.5313 61.1067 68.1979 61.52 67.5313 61.68L67.2513 61.72C67.1713 61.72 67.0779 61.7333 66.9713 61.76C66.8646 61.7867 66.7313 61.8133 66.5713 61.84L65.3313 62.04V75.36C65.3313 76.56 65.4779 77.56 65.7713 78.36C66.0379 79.2133 66.4779 79.9867 67.0913 80.68C67.5979 81.2667 68.2779 81.7467 69.1313 82.12C69.9046 82.4667 70.8379 82.64 71.9313 82.64C73.0246 82.64 73.9579 82.4667 74.7313 82.12C75.6379 81.72 76.3313 81.24 76.8113 80.68C77.3179 80.0933 77.7446 79.3333 78.0913 78.4C78.4113 77.3867 78.5713 76.3867 78.5713 75.4V62.04L77.3313 61.84C77.1713 61.8133 77.0379 61.7867 76.9313 61.76C76.8246 61.7333 76.7313 61.72 76.6513 61.72L76.3713 61.68C75.7046 61.52 75.3713 61.1067 75.3713 60.44V58.08H86.9713V60.44ZM109.141 67.2C108.661 67.2 108.355 66.96 108.221 66.48C108.141 66.1333 108.021 65.0667 107.861 63.28C105.755 62.6667 103.915 62.36 102.341 62.36C100.928 62.36 99.6746 62.5867 98.5812 63.04C97.4346 63.52 96.4612 64.2 95.6612 65.08C94.8346 65.9867 94.1946 67.0533 93.7412 68.28C93.2612 69.56 93.0212 70.9867 93.0212 72.56C93.0212 74.16 93.2612 75.6 93.7412 76.88C94.2479 78.2133 94.8612 79.28 95.5812 80.08C96.3546 80.9333 97.2879 81.6 98.3812 82.08C99.3946 82.5333 100.541 82.76 101.821 82.76C102.568 82.76 103.235 82.72 103.821 82.64C104.435 82.56 104.981 82.44 105.461 82.28C105.915 82.12 106.381 81.8933 106.861 81.6C107.261 81.36 107.701 81.0133 108.181 80.56C108.261 80.48 108.408 80.3867 108.621 80.28C108.728 80.2267 108.888 80.2 109.101 80.2C109.421 80.2 109.675 80.3067 109.861 80.52L111.981 82.84C110.808 84.3067 109.368 85.4133 107.661 86.16C105.901 86.9333 103.835 87.32 101.461 87.32C99.4079 87.32 97.4879 86.9467 95.7012 86.2C93.9412 85.4533 92.4746 84.44 91.3012 83.16C90.0479 81.8 89.1146 80.24 88.5012 78.48C87.8612 76.6667 87.5412 74.6933 87.5412 72.56C87.5412 70.3467 87.9012 68.3467 88.6212 66.56C89.3412 64.7733 90.3546 63.2267 91.6612 61.92C93.0212 60.56 94.5812 59.5333 96.3412 58.84C98.1546 58.12 100.168 57.76 102.381 57.76C104.835 57.76 107.861 58.4533 111.461 59.84V67.2H109.141ZM142.668 67.2C142.188 67.2 141.881 66.96 141.748 66.48C141.668 66.1333 141.548 65.0667 141.388 63.28C139.281 62.6667 137.441 62.36 135.868 62.36C134.454 62.36 133.201 62.5867 132.108 63.04C130.961 63.52 129.988 64.2 129.188 65.08C128.361 65.9867 127.721 67.0533 127.268 68.28C126.788 69.56 126.548 70.9867 126.548 72.56C126.548 74.16 126.788 75.6 127.268 76.88C127.774 78.2133 128.388 79.28 129.108 80.08C129.881 80.9333 130.814 81.6 131.908 82.08C132.921 82.5333 134.068 82.76 135.348 82.76C136.094 82.76 136.761 82.72 137.348 82.64C137.961 82.56 138.508 82.44 138.988 82.28C139.441 82.12 139.908 81.8933 140.388 81.6C140.788 81.36 141.228 81.0133 141.708 80.56C141.788 80.48 141.934 80.3867 142.148 80.28C142.254 80.2267 142.414 80.2 142.628 80.2C142.948 80.2 143.201 80.3067 143.388 80.52L145.508 82.84C144.334 84.3067 142.894 85.4133 141.188 86.16C139.428 86.9333 137.361 87.32 134.988 87.32C132.934 87.32 131.014 86.9467 129.228 86.2C127.468 85.4533 126.001 84.44 124.828 83.16C123.574 81.8 122.641 80.24 122.028 78.48C121.388 76.6667 121.068 74.6933 121.068 72.56C121.068 70.3467 121.428 68.3467 122.148 66.56C122.868 64.7733 123.881 63.2267 125.188 61.92C126.548 60.56 128.108 59.5333 129.868 58.84C131.681 58.12 133.694 57.76 135.908 57.76C138.361 57.76 141.388 58.4533 144.988 59.84V67.2H142.668ZM156.177 66.16C157.643 66.16 159.03 66.4133 160.337 66.92C161.617 67.4267 162.683 68.12 163.537 69C164.39 69.88 165.057 70.9867 165.537 72.32C166.017 73.6267 166.257 75.08 166.257 76.68C166.257 78.28 166.017 79.7467 165.537 81.08C165.03 82.44 164.363 83.56 163.537 84.44C162.657 85.3733 161.59 86.08 160.337 86.56C159.11 87.04 157.723 87.28 156.177 87.28C154.63 87.28 153.23 87.04 151.977 86.56C150.723 86.08 149.657 85.3733 148.777 84.44C147.843 83.48 147.15 82.36 146.697 81.08C146.217 79.7467 145.977 78.28 145.977 76.68C145.977 75.08 146.217 73.6267 146.697 72.32C147.15 71.0933 147.843 69.9867 148.777 69C149.63 68.12 150.697 67.4267 151.977 66.92C153.283 66.4133 154.683 66.16 156.177 66.16ZM156.177 83.48C157.883 83.48 159.137 82.9067 159.937 81.76C160.763 80.56 161.177 78.88 161.177 76.72C161.177 74.56 160.763 72.88 159.937 71.68C159.137 70.5067 157.883 69.92 156.177 69.92C154.47 69.92 153.19 70.5067 152.337 71.68C151.483 72.8533 151.057 74.5467 151.057 76.76C151.057 78.92 151.483 80.5867 152.337 81.76C153.163 82.9067 154.443 83.48 156.177 83.48ZM180.66 66.12C181.7 66.12 182.54 66.3467 183.18 66.8L182.54 70.52C182.513 70.76 182.433 70.92 182.3 71C182.14 71.1067 181.953 71.16 181.74 71.16C181.553 71.16 181.287 71.12 180.94 71.04C180.46 70.9333 179.993 70.88 179.54 70.88C178.5 70.88 177.62 71.16 176.9 71.72C176.233 72.2267 175.62 73.0667 175.06 74.24V83.04L177.06 83.4C177.727 83.56 178.06 83.9733 178.06 84.64V87H167.1V84.64C167.1 83.9733 167.433 83.56 168.1 83.4L170.1 83.04V70.44L168.1 70.08C167.433 69.92 167.1 69.5067 167.1 68.84V66.48H173.02C173.527 66.48 173.873 66.5733 174.06 66.76C174.247 66.9467 174.38 67.2667 174.46 67.72L174.78 70.2C175.5 68.8933 176.353 67.8933 177.34 67.2C178.353 66.48 179.46 66.12 180.66 66.12ZM193.602 66.16C194.909 66.16 196.095 66.36 197.162 66.76C198.175 67.1333 199.109 67.7467 199.962 68.6C200.735 69.3733 201.349 70.3467 201.802 71.52C202.255 72.72 202.482 74.0267 202.482 75.44C202.482 75.76 202.455 76.08 202.402 76.4C202.349 76.6933 202.295 76.88 202.242 76.96C202.189 77.0933 202.069 77.2 201.882 77.28C201.775 77.3333 201.589 77.36 201.322 77.36H188.642C188.802 79.4667 189.375 81.0133 190.362 82C191.349 82.9867 192.655 83.48 194.282 83.48C195.109 83.48 195.789 83.3867 196.322 83.2C196.909 83.0133 197.415 82.8 197.842 82.56C198.029 82.4533 198.215 82.36 198.402 82.28C198.615 82.1733 198.815 82.0667 199.002 81.96C199.295 81.7733 199.602 81.68 199.922 81.68C200.135 81.68 200.322 81.72 200.482 81.8C200.615 81.8533 200.735 81.96 200.842 82.12L202.282 83.92C201.669 84.6133 201.055 85.16 200.442 85.56C199.722 86.0133 199.015 86.36 198.322 86.6C197.655 86.8133 196.895 86.9867 196.042 87.12C195.375 87.2267 194.629 87.28 193.802 87.28C192.335 87.28 191.015 87.0533 189.842 86.6C188.669 86.1467 187.602 85.44 186.642 84.48C185.735 83.5733 185.015 82.4267 184.482 81.04C183.975 79.7067 183.722 78.12 183.722 76.28C183.722 74.9467 183.949 73.64 184.402 72.36C184.829 71.16 185.482 70.08 186.362 69.12C187.189 68.2133 188.215 67.4933 189.442 66.96C190.669 66.4267 192.055 66.16 193.602 66.16ZM193.682 69.68C192.269 69.68 191.149 70.0933 190.322 70.92C189.522 71.72 189.002 72.8667 188.762 74.36H198.042C198.042 73.8 197.949 73.2 197.762 72.56C197.602 72.0533 197.335 71.56 196.962 71.08C196.615 70.6533 196.162 70.32 195.602 70.08C194.989 69.8133 194.349 69.68 193.682 69.68ZM225.923 83.4C226.589 83.56 226.923 83.9733 226.923 84.64V87H220.883C220.269 87 219.856 86.6933 219.643 86.08L219.283 84.44C218.829 84.8933 218.389 85.2933 217.963 85.64C217.563 85.96 217.083 86.2533 216.523 86.52C215.989 86.76 215.429 86.96 214.843 87.12C214.176 87.2533 213.549 87.32 212.963 87.32C211.869 87.32 210.869 87.1333 209.963 86.76C209.189 86.44 208.469 85.8933 207.803 85.12C207.269 84.5067 206.829 83.6933 206.483 82.68C206.189 81.6667 206.043 80.6133 206.043 79.52V70.44L204.003 70.08C203.336 69.92 203.003 69.5067 203.003 68.84V66.48H210.963V79.52C210.963 80.7467 211.256 81.72 211.843 82.44C212.403 83.1067 213.269 83.44 214.443 83.44C215.243 83.44 216.043 83.2533 216.843 82.88C217.563 82.5333 218.269 82.0133 218.963 81.32V70.44C218.216 70.3067 217.723 70.2267 217.483 70.2C217.243 70.1467 217.069 70.1067 216.963 70.08C216.296 69.92 215.963 69.5067 215.963 68.84V66.48H223.923V83.04L225.923 83.4Z" fill="white"/>
</svg>
